<svg width="80" height="59" viewBox="0 0 80 59" fill="none" xmlns="http://www.w3.org/2000/svg">
<path d="M55.5777 3.35678L52.0841 0.61168C51.5381 0.156586 50.8396 -0.058329 50.1405 0.0136317C49.4414 0.0855924 48.7981 0.438615 48.3505 0.995995L0 58.149L0.746727 59L12.721 47.6353C12.3219 47.47 11.9918 47.166 11.7878 46.7761C11.5839 46.3863 11.519 45.9352 11.6046 45.5013C11.6902 45.0673 11.9208 44.678 12.2563 44.4009C12.5918 44.1237 13.011 43.9763 13.4411 43.9843C13.8289 43.9842 14.2066 44.1122 14.5185 44.3494C14.8305 44.5865 15.0605 44.9204 15.1745 45.3019L30.9624 30.2313C31.2042 30.0308 31.5054 29.9215 31.8158 29.9215C32.1263 29.9215 32.4275 30.0308 32.6692 30.2313L33.4693 30.8353C33.74 31.0349 34.0735 31.1231 34.4041 31.0825C34.7348 31.0418 35.0387 30.8753 35.2561 30.6156L55.8977 6.78816C56.1171 6.55161 56.2845 6.26922 56.3884 5.96017C56.4923 5.65113 56.5304 5.32268 56.5 4.99714C56.4697 4.6716 56.3716 4.35661 56.2124 4.07356C56.0533 3.79052 55.8368 3.54605 55.5777 3.35678V3.35678Z" fill="#303030"/>
<path d="M78.2989 19.4429C67.718 27.1922 55.8648 32.9114 43.3095 36.3252C30.8484 39.5873 18.0974 41.5372 5.25317 42.1449C5.5118 44.0945 5.97682 46.0091 6.63995 47.8547C13.8939 54.6076 68.5115 43.0782 79.179 29.737C81.4458 26.9645 78.2989 19.4429 78.2989 19.4429ZM13.4405 47.6351C13.0818 47.6351 12.7312 47.5256 12.433 47.3205C12.1347 47.1154 11.9023 46.8238 11.765 46.4827C11.6278 46.1416 11.5919 45.7663 11.6619 45.4042C11.7318 45.0421 11.9045 44.7095 12.1582 44.4485C12.4118 44.1874 12.7349 44.0096 13.0867 43.9376C13.4385 43.8656 13.8031 43.9025 14.1345 44.0438C14.4658 44.1851 14.7491 44.4244 14.9483 44.7313C15.1476 45.0383 15.254 45.3992 15.254 45.7684C15.2576 46.0146 15.2131 46.2589 15.1232 46.4871C15.0334 46.7152 14.8999 46.9225 14.7308 47.0966C14.5617 47.2707 14.3604 47.408 14.1387 47.5005C13.9171 47.593 13.6796 47.6388 13.4405 47.6351V47.6351Z" fill="#303030"/>
</svg>
