<?xml version="1.0" standalone="no"?>
<!DOCTYPE svg PUBLIC "-//W3C//DTD SVG 20010904//EN"
 "http://www.w3.org/TR/2001/REC-SVG-20010904/DTD/svg10.dtd">
<svg version="1.0" xmlns="http://www.w3.org/2000/svg"
 width="700.000000pt" height="700.000000pt" viewBox="0 0 700.000000 700.000000"
 preserveAspectRatio="xMidYMid meet">
<metadata>
Created by potrace 1.14, written by Peter Selinger 2001-2017
</metadata>
<g transform="translate(0.000000,700.000000) scale(0.100000,-0.100000)"
fill="#000000" stroke="none">
<path d="M4215 5672 c-41 -14 -81 -46 -133 -106 -28 -33 -64 -75 -80 -92 -15
-18 -38 -45 -51 -60 -48 -57 -136 -159 -141 -164 -3 -3 -48 -54 -100 -115 -52
-60 -97 -112 -100 -115 -3 -3 -34 -39 -70 -80 -35 -41 -67 -77 -70 -80 -5 -5
-106 -123 -146 -170 -12 -14 -55 -63 -96 -110 -41 -47 -189 -217 -329 -379
-625 -724 -722 -836 -728 -841 -4 -3 -19 -21 -35 -40 -28 -34 -47 -56 -212
-246 -43 -50 -104 -119 -134 -154 -30 -35 -89 -103 -130 -150 -41 -47 -89
-102 -107 -122 -29 -35 -35 -37 -110 -43 -43 -3 -91 -8 -108 -10 -16 -2 -86
-7 -155 -11 -69 -4 -138 -8 -155 -10 -16 -1 -61 -2 -99 -3 l-69 -1 7 -53 c9
-75 24 -137 63 -265 l34 -113 50 -31 c50 -30 50 -31 31 -52 -22 -25 -258 -296
-427 -491 -175 -202 -161 -178 -128 -214 l28 -31 50 46 c28 25 77 71 111 102
73 69 277 258 319 296 76 70 231 213 252 235 22 21 30 23 81 17 94 -11 251
-20 352 -20 106 1 408 13 436 18 11 2 55 7 99 11 44 3 94 8 110 10 51 6 118
14 170 21 28 3 60 7 72 9 12 2 57 8 100 15 43 6 121 18 173 26 52 9 109 18
125 21 25 4 125 22 315 58 14 3 36 8 50 11 14 3 36 8 50 10 14 2 36 7 50 10
14 3 36 8 50 10 23 5 151 34 300 70 36 9 72 17 80 19 411 96 1215 354 1477
475 24 11 45 20 48 20 10 0 213 93 325 150 325 162 508 285 672 450 84 85 99
105 113 154 23 79 24 176 4 299 -16 94 -86 332 -107 365 -7 10 -25 2 -73 -32
-220 -155 -590 -382 -814 -501 -122 -64 -443 -225 -449 -225 -3 0 -37 -15 -78
-34 -135 -62 -212 -94 -408 -169 -228 -88 -675 -236 -761 -252 -12 -3 -45 -11
-73 -19 -43 -12 -327 -81 -376 -91 -8 -2 -35 -8 -60 -14 -103 -24 -227 -50
-260 -56 -19 -3 -78 -14 -130 -25 -52 -10 -113 -21 -134 -24 -21 -4 -48 -8
-60 -11 -12 -3 -34 -7 -51 -10 -16 -3 -68 -11 -115 -19 -83 -15 -139 -24 -190
-31 -57 -9 -247 -36 -275 -40 -16 -2 -52 -7 -80 -11 l-49 -7 54 50 c57 53 88
81 206 192 74 70 133 125 333 311 68 63 151 141 185 173 106 101 135 106 226
41 82 -59 125 -53 195 26 22 25 45 50 50 56 6 6 39 44 75 84 36 40 70 78 75
84 6 6 44 49 84 96 41 47 80 90 85 95 6 6 26 28 45 50 18 22 52 60 75 85 23
25 91 101 151 170 136 154 167 190 181 204 5 6 50 56 99 111 130 147 308 347
364 410 20 22 65 74 101 115 36 41 86 97 112 125 26 27 55 66 65 85 25 50 20
124 -9 166 -25 34 -273 230 -343 271 -40 23 -105 29 -150 15z m-2662 -3268
c82 -61 74 -185 -16 -227 -66 -32 -134 -14 -174 46 -44 64 -20 156 50 191 40
21 105 16 140 -10z"/>
</g>
</svg>
