<svg
  aria-hidden="true"
  style="position:absolute;width:0;height:0;overflow:hidden"
  xmlns="http://www.w3.org/2000/svg"
>
  <defs>
    <symbol
      id="logo"
      viewBox="0 0 39 32"
    >
      <path
        d="m22.371 9.64-.749-.571a.57.57 0 0 0-.8.08l-10.36 11.897.16.177 2.566-2.366a.393.393 0 0 1-.099-.673.397.397 0 0 1 .626.187l3.383-3.137a.295.295 0 0 1 .366 0l.171.126a.285.285 0 0 0 .383-.045l4.423-4.96a.47.47 0 0 0 .067-.564.473.473 0 0 0-.136-.149z"
      />
      <path
        d="M27.24 12.989a23.103 23.103 0 0 1-7.497 3.514 40.623 40.623 0 0 1-8.154 1.211c.055.406.155.804.297 1.189 1.554 1.406 13.257-.994 15.543-3.771.486-.577-.189-2.143-.189-2.143zm-13.897 5.868a.387.387 0 0 1-.381-.464.39.39 0 0 1 .305-.305c.075-.015.153-.007.225.022s.132.079.174.143a.395.395 0 0 1-.046.493.375.375 0 0 1-.277.112zM2.286 12.166l.091-.394 1.486.337c.123.226.198.475.223.731.028.271.011.546-.051.811a2.143 2.143 0 0 1-.491.994c-.236.267-.54.464-.88.571-.35.108-.723.122-1.08.04a1.998 1.998 0 0 1-.954-.503 1.894 1.894 0 0 1-.543-.897 2.153 2.153 0 0 1 0-1.143c.061-.28.172-.547.326-.789.146-.22.342-.402.571-.531l.206.314a1.634 1.634 0 0 0-.754 1.108c-.071.296-.065.604.017.897.077.278.229.529.44.726.217.21.488.354.783.417.286.08.588.08.874 0 .274-.09.52-.25.714-.463.2-.23.337-.507.4-.806a1.75 1.75 0 0 0-.069-1.091l-1.309-.331zM5.52 8.572l-1.331 1.777.571 1.023-.263.354-2.114-3.857.246-.337 4.303.926-.269.354-1.143-.24zm-.377-.092-2.286-.514L4 10.017 5.143 8.48zm0-3.594.343-.257 2.177 2.914L9.457 6.2l.217.291-2.131 1.594-2.4-3.2zm3.6-2.383.383-.171 1.509 3.303 2.04-.926.149.331-2.423 1.103-1.657-3.64zm7.531 1.314.086.36-2.754.646-.914-3.897 2.674-.623.08.354-2.286.531.326 1.383 2.011-.474.086.354-2.017.469.343 1.446 2.366-.549zm3.926.143-.954-1.257a2.847 2.847 0 0 1-.32 0l-1.074.034.04 1.269h-.423l-.131-4L18.858 0a1.8 1.8 0 0 1 1.211.326 1.257 1.257 0 0 1 .469.994c.017.282-.057.563-.211.8a1.329 1.329 0 0 1-.663.486l1 1.337-.463.017zm-.4-1.88a.915.915 0 0 0 .291-.748.929.929 0 0 0-.337-.732 1.385 1.385 0 0 0-.897-.234l-1.086.04.069 2 1.063-.034c.324.012.642-.091.897-.291zm3.423.817-.206 1.366L22.6 4.2l.211-1.343L21.628 0l.446.069 1.011 2.434L24.799.486l.4.086-1.977 2.326zm5.651-.24.497.646-.217.171-.497-.663-.314.749-.24-.103.32-.749-.823.109v-.274l.811-.091-.503-.646.223-.171.44.651.309-.754.246.103-.291.766.823-.114v.28l-.783.091zm1.909 4.606a1.588 1.588 0 0 1-.246-.691l.337-.149c.025.226.099.445.217.64.128.219.294.412.491.571.204.195.464.321.743.36a.623.623 0 0 0 .537-.223.509.509 0 0 0 .131-.389 1.064 1.064 0 0 0-.137-.394 6.03 6.03 0 0 0-.349-.509 5.034 5.034 0 0 1-.411-.629 1.152 1.152 0 0 1-.149-.537c0-.212.079-.416.223-.571.125-.151.289-.264.474-.326.207-.06.427-.06.634 0 .267.087.514.227.726.411.176.146.332.315.463.503.121.174.212.367.269.571l-.326.171a2.056 2.056 0 0 0-.251-.537 2.014 2.014 0 0 0-.383-.394 1.272 1.272 0 0 0-.737-.349.61.61 0 0 0-.537.234.493.493 0 0 0-.131.389c.013.144.06.283.137.406.08.131.194.303.349.509.153.195.291.401.411.617.095.164.148.348.154.537a.838.838 0 0 1-.223.571 1.02 1.02 0 0 1-.48.326 1.104 1.104 0 0 1-.634 0 2.123 2.123 0 0 1-.731-.411 2.591 2.591 0 0 1-.571-.709zm5.748.834-.806-1.143.297-.211 1.857 2.651-.297.211-.806-1.143-2.983 2.086-.24-.349 2.977-2.103zm-1.279 4.697c.102-.345.3-.655.571-.891.265-.238.589-.401.937-.474a2.06 2.06 0 0 1 1.074.04c.336.111.638.308.874.571.246.283.414.626.486.994a2.17 2.17 0 0 1 0 1.103 1.962 1.962 0 0 1-.571.891 2.122 2.122 0 0 1-2.04.445 1.92 1.92 0 0 1-.874-.571 2.155 2.155 0 0 1-.486-.989 2.203 2.203 0 0 1 .029-1.12zM36 14.611c.191.217.438.377.714.463a1.765 1.765 0 0 0 1.657-.366c.211-.194.367-.441.451-.714a1.845 1.845 0 0 0-.371-1.68 1.635 1.635 0 0 0-.737-.463 1.705 1.705 0 0 0-.88 0c-.291.056-.56.192-.777.394a1.591 1.591 0 0 0-.451.72c-.078.29-.078.596 0 .886.063.284.199.546.394.76zm-1.183 4.818 1.48-.571c0-.103.034-.206.063-.314l.28-1.034-1.211-.314.109-.406 3.863 1.034-.389 1.446a1.805 1.805 0 0 1-.663 1.063 1.245 1.245 0 0 1-1.086.16 1.238 1.238 0 0 1-.977-1.206l-1.577.571.109-.429zm1.915.16a1.024 1.024 0 0 0 1.435.383c.252-.203.424-.488.486-.806l.274-1.029-1.937-.52-.274 1.029c-.105.306-.099.64.017.943zm-3.966 3.52-.291-.223 1.714-2.257 3.189 2.417-1.657 2.189-.291-.223 1.4-1.846-1.143-.863-1.251 1.651-.286-.217 1.28-1.651-1.183-.897-1.48 1.92zm-1.337 4.554-.817.046v-.274l.817-.006-.44-.68.223-.143.434.686.354-.766.246.131-.389.72.817-.046v.28h-.829l.44.68-.223.143-.434-.686-.377.743-.24-.137.417-.691zM24 27.206l.691.383a1.78 1.78 0 0 1 1.143-.903c.227-.071.466-.096.703-.074.206.016.403.087.571.206a.908.908 0 0 1 .32.457c.069.226.057.468-.034.686a2.857 2.857 0 0 1-.571.794c.188.101.363.226.52.371a.983.983 0 0 1 .234.394.761.761 0 0 1-.149.669c-.152.22-.38.376-.64.44a.996.996 0 0 1-.709 0 .714.714 0 0 1-.412-.485.773.773 0 0 1 .04-.571c.131-.26.303-.497.509-.703l-1.377-.766a2.732 2.732 0 0 0-.034.817h-.349a2.738 2.738 0 0 1 .114-.994l-.72-.4.149-.32zm.994.571 1.514.84c.198-.189.363-.412.486-.657a.723.723 0 0 0 0-.514.618.618 0 0 0-.4-.429 1.143 1.143 0 0 0-.731 0 1.377 1.377 0 0 0-.891.743l.023.017zm2.149 2.286a.524.524 0 0 0 .046-.422.7.7 0 0 0-.183-.297 2.452 2.452 0 0 0-.474-.314 2.962 2.962 0 0 0-.451.571.576.576 0 0 0-.046.423.482.482 0 0 0 .251.302.637.637 0 0 0 .451 0 .68.68 0 0 0 .383-.269l.023.006zm-10.109 1.548.08-4h.406l-.063 3.2 1.623-2.663h.2l1.52 2.709.057-3.183h.406l-.074 4h-.349l-1.68-2.989-1.777 2.931-.349-.006zm-1.988-4.182a1.953 1.953 0 0 1 .52 1.977 2.027 2.027 0 0 1-.543.931 1.92 1.92 0 0 1-.92.503 2.217 2.217 0 0 1-1.109-.034 2.155 2.155 0 0 1-.96-.52 1.92 1.92 0 0 1-.531-.903 2.111 2.111 0 0 1 .572-2.012c.25-.249.561-.427.903-.514a2.205 2.205 0 0 1 1.103.034c.363.092.696.277.966.537zm-1.949-.2c-.28.065-.535.208-.737.411a1.65 1.65 0 0 0-.434.76c-.08.286-.08.588 0 .874.067.278.212.532.417.731.215.21.481.362.771.44.291.074.595.074.886 0a1.63 1.63 0 0 0 .743-.411c.209-.21.359-.473.434-.76.08-.288.08-.592 0-.88a1.598 1.598 0 0 0-.423-.731 1.71 1.71 0 0 0-.777-.434 1.643 1.643 0 0 0-.88 0zm-4.326-2.658.154 1.571c.098.042.193.09.286.143l.931.537.629-1.109.371.211-2 3.446-1.303-.749a1.813 1.813 0 0 1-.857-.914 1.255 1.255 0 0 1 .126-1.086c.133-.25.343-.451.6-.571.261-.108.549-.13.823-.063l-.166-1.68.406.263zm-.651 1.806a1.036 1.036 0 0 0-.642.486 1.021 1.021 0 0 0-.095.8c.134.296.366.536.657.68l.92.531 1-1.714-.92-.531a1.413 1.413 0 0 0-.92-.28v.029zm-2.731-4.486.257-.257 1.971 2.029-2.857 2.789-1.903-1.966.263-.257 1.617 1.663.977-.989-1.417-1.474.274-.263 1.446 1.486 1.063-1.034-1.691-1.726zm-4.246-2.245.137-.789.269.04-.154.811.76-.28.091.251-.771.263.634.537-.183.206-.611-.571-.143.811-.274-.051.16-.811-.766.274-.086-.223.766-.269-.634-.531.189-.206.617.537z"
      />
    </symbol>
    <symbol
      id="instagram"
      viewBox="0 0 32 32"
    >
      <path
        d="M31.969 9.408c-.075-1.7-.35-2.869-.744-3.882a7.806 7.806 0 0 0-1.851-2.838A7.867 7.867 0 0 0 26.542.844C25.523.45 24.36.175 22.66.1 20.947.019 20.403 0 16.059 0s-4.888.019-6.595.094c-1.7.075-2.869.35-3.882.744a7.803 7.803 0 0 0-2.838 1.85A7.867 7.867 0 0 0 .9 5.52C.506 6.539.231 7.702.156 9.402c-.081 1.713-.1 2.257-.1 6.601s.019 4.888.094 6.595c.075 1.7.35 2.869.744 3.882a7.895 7.895 0 0 0 1.85 2.838 7.867 7.867 0 0 0 2.832 1.844c1.019.394 2.182.669 3.882.744 1.706.075 2.25.094 6.595.094s4.888-.019 6.595-.094c1.7-.075 2.869-.35 3.882-.744a8.184 8.184 0 0 0 4.682-4.682c.394-1.019.669-2.182.744-3.882.075-1.707.094-2.251.094-6.595s-.006-4.888-.081-6.595zm-2.882 13.065c-.069 1.563-.331 2.407-.55 2.969a5.31 5.31 0 0 1-3.038 3.038c-.563.219-1.413.481-2.969.55-1.688.075-2.194.094-6.464.094s-4.782-.019-6.464-.094c-1.563-.069-2.407-.331-2.969-.55a4.926 4.926 0 0 1-1.838-1.194 4.974 4.974 0 0 1-1.194-1.838c-.219-.563-.481-1.413-.55-2.969-.075-1.688-.094-2.194-.094-6.464s.019-4.782.094-6.464c.069-1.563.331-2.407.55-2.969a4.868 4.868 0 0 1 1.2-1.838A4.974 4.974 0 0 1 6.639 3.55c.563-.219 1.413-.481 2.969-.55 1.688-.075 2.194-.094 6.464-.094 4.276 0 4.782.019 6.464.094 1.563.069 2.407.331 2.969.55a4.914 4.914 0 0 1 1.838 1.194 4.974 4.974 0 0 1 1.194 1.838c.219.563.481 1.413.55 2.969.075 1.688.094 2.194.094 6.464s-.019 4.77-.094 6.458z"
      />
      <path
        d="M16.059 7.783c-4.538 0-8.22 3.682-8.22 8.22s3.682 8.22 8.22 8.22c4.539 0 8.22-3.682 8.22-8.22s-3.682-8.22-8.22-8.22zm0 13.552a5.333 5.333 0 0 1 0-10.664 5.333 5.333 0 0 1 0 10.664zM26.524 7.458a1.919 1.919 0 1 1-3.838 0 1.919 1.919 0 0 1 3.838 0z"
      />
    </symbol>
    <symbol
      id="twitter"
      viewBox="0 0 32 32"
    >
      <path
        d="M32 6.078c-1.19.522-2.458.868-3.78 1.036a6.523 6.523 0 0 0 2.886-3.626 13.11 13.11 0 0 1-4.16 1.588A6.574 6.574 0 0 0 22.154 3c-3.632 0-6.556 2.948-6.556 6.562 0 .52.044 1.02.152 1.496-5.454-.266-10.28-2.88-13.522-6.862a6.605 6.605 0 0 0-.898 3.316 6.57 6.57 0 0 0 2.914 5.452 6.479 6.479 0 0 1-2.964-.808v.072c0 3.188 2.274 5.836 5.256 6.446a6.548 6.548 0 0 1-1.72.216 5.8 5.8 0 0 1-1.242-.112c.85 2.598 3.262 4.508 6.13 4.57a13.182 13.182 0 0 1-8.134 2.798c-.538 0-1.054-.024-1.57-.09A18.469 18.469 0 0 0 10.064 29c12.072 0 18.672-10 18.672-18.668 0-.29-.01-.57-.024-.848A13.087 13.087 0 0 0 32 6.078z"
      />
    </symbol>
    <symbol
      id="facebook"
      viewBox="0 0 32 32"
    >
      <path
        d="M21.33 5.313h2.921V.225C23.747.156 22.014 0 19.995 0c-4.212 0-7.097 2.649-7.097 7.519V12H8.25v5.688h4.648V32h5.699V17.689h4.46l.708-5.688h-5.169V8.082c.001-1.644.444-2.769 2.735-2.769z"
      />
    </symbol>
    <symbol
      id="linkedin"
      viewBox="0 0 32 32"
    >
      <path
        d="M31.992 32v-.001H32V20.263c0-5.741-1.236-10.164-7.948-10.164-3.227 0-5.392 1.771-6.276 3.449h-.093v-2.913h-6.364v21.364h6.627V21.42c0-2.785.528-5.479 3.977-5.479 3.399 0 3.449 3.179 3.449 5.657v10.401h6.62zM.528 10.636h6.635V32H.528V10.636zM3.843 0C1.722 0 0 1.721 0 3.843s1.721 3.879 3.843 3.879c2.121 0 3.843-1.757 3.843-3.879A3.846 3.846 0 0 0 3.843 0z"
      />
    </symbol>
    <symbol
      id="map-pin"
      viewBox="0 0 32 32"
    >
      <path
        stroke-linejoin="round"
        stroke-linecap="round"
        stroke-width="1.333"
        d="M26.667 13.818C26.667 21.454 16 28 16 28S5.333 21.455 5.333 13.818C5.333 8.396 10.109 4 16 4s10.667 4.396 10.667 9.818z"
      />
      <path
        stroke-linejoin="round"
        stroke-linecap="round"
        stroke-width="1.333"
        d="M16 18.667a4 4 0 1 0 0-8 4 4 0 0 0 0 8z"
      />
    </symbol>
    <symbol
      id="phone"
      viewBox="0 0 32 32"
    >
      <path
        stroke-linejoin="round"
        stroke-linecap="round"
        stroke-width="1.333"
        d="M26.666 21.337v3.218a2.146 2.146 0 0 1-2.338 2.145 21.239 21.239 0 0 1-9.257-3.293 20.914 20.914 0 0 1-6.436-6.436 21.221 21.221 0 0 1-3.293-9.3 2.144 2.144 0 0 1 2.134-2.338h3.218a2.144 2.144 0 0 1 2.145 1.845c.136 1.03.388 2.041.751 3.014a2.144 2.144 0 0 1-.483 2.263l-1.362 1.362a17.162 17.162 0 0 0 6.436 6.436l1.362-1.362a2.146 2.146 0 0 1 2.263-.483c.973.363 1.984.615 3.014.751a2.144 2.144 0 0 1 1.845 2.177z"
      />
    </symbol>
    <symbol
      id="mail"
      viewBox="0 0 32 32"
    >
      <path
        stroke-linejoin="round"
        stroke-linecap="round"
        stroke-width="1.333"
        d="M6.4 6.667h19.2c1.32 0 2.4 1.05 2.4 2.333v14c0 1.283-1.08 2.333-2.4 2.333H6.4C5.08 25.333 4 24.283 4 23V9c0-1.283 1.08-2.333 2.4-2.333z"
      />
      <path
        stroke-linejoin="round"
        stroke-linecap="round"
        stroke-width="1.333"
        d="m26.667 9.333-10.667 8-10.667-8"
      />
    </symbol>
    <symbol
      id="client-1"
      viewBox="0 0 106 60"
    >
      <path
        fill-rule="evenodd"
        clip-rule="evenodd"
        d="m38 7 7.008 6.634L32 13.626v32.188h34V33.507l7 6.627V7H38Zm27.692 25.728-19.87-18.81h19.87v18.81Zm-6.169 8.377H37.38V19.459h1.565V39.64h20.578v1.465ZM42.61 50.1l-.818 1.685-.818-1.685h-.686l1.194 2.246v1.309h.62v-1.309l1.191-2.246h-.683Zm1.028 3.555.288-.828h1.377l.29.828h.645l-1.345-3.555h-.555l-1.342 3.555h.642Zm.976-2.8.515 1.474h-1.03l.515-1.475Zm3.257 1.389a.807.807 0 0 0-.134.451c0 .3.105.543.315.73.211.186.493.279.844.279.352 0 .655-.096.909-.286l.2.237h.688l-.522-.618c.205-.28.307-.639.307-1.077h-.515c0 .24-.05.457-.149.652l-.686-.81.242-.176a1.34 1.34 0 0 0 .369-.371.785.785 0 0 0 .112-.41.732.732 0 0 0-.249-.564.895.895 0 0 0-.635-.23c-.286 0-.514.082-.683.244-.17.162-.254.381-.254.66 0 .114.027.231.08.354.056.122.153.27.29.444-.263.189-.44.352-.529.49Zm1.604.786a.905.905 0 0 1-.561.2.585.585 0 0 1-.425-.154.533.533 0 0 1-.159-.4c0-.19.098-.36.293-.508l.076-.054.776.916Zm-.637-1.575c-.168-.207-.252-.378-.252-.515 0-.119.035-.217.103-.295a.348.348 0 0 1 .276-.118.37.37 0 0 1 .266.1c.07.066.105.145.105.237a.44.44 0 0 1-.151.345l-.076.06-.271.186Zm5.786 1.931c.244-.213.384-.51.42-.888h-.615c-.033.254-.11.435-.232.544-.122.11-.305.164-.547.164-.265 0-.467-.101-.605-.303-.137-.202-.206-.495-.206-.88v-.314c.004-.38.077-.666.22-.862.145-.197.352-.295.62-.295.231 0 .406.057.525.17.12.113.195.297.225.552h.615c-.04-.389-.178-.69-.417-.903-.24-.213-.555-.32-.948-.32-.291 0-.548.07-.771.208a1.346 1.346 0 0 0-.51.59 2.082 2.082 0 0 0-.179.887v.332c.005.327.066.614.183.862.118.247.284.438.498.573.217.134.467.2.75.2.405 0 .73-.105.974-.317Zm3.63-.498c.12-.264.181-.57.181-.918v-.197a2.149 2.149 0 0 0-.185-.911 1.356 1.356 0 0 0-.52-.6c-.224-.14-.48-.21-.77-.21-.29 0-.546.07-.771.212-.223.14-.396.342-.52.608a2.174 2.174 0 0 0-.183.918v.2c.002.34.063.64.185.9.124.261.298.462.523.604.226.14.483.21.771.21.292 0 .549-.07.772-.21.224-.142.397-.344.517-.606Zm-.661-2.01c.15.21.224.513.224.907v.185c0 .4-.074.705-.222.913-.146.209-.356.313-.63.313a.738.738 0 0 1-.634-.32c-.152-.213-.227-.515-.227-.906v-.205c.003-.382.08-.678.229-.886a.731.731 0 0 1 .627-.315c.274 0 .485.105.633.315Z"
      />
    </symbol>
    <symbol
      id="logo-1"
      viewBox="0 0 57 32"
    >
      <path
        d="m20.267 3.733 3.738 3.538-6.938-.004v17.166H35.2v-6.564l3.733 3.534V3.732H20.266zm14.769 13.722L24.439 7.423h10.597v10.032zm-3.29 4.468h-11.81V10.378h.835v10.764h10.975v.782zm-9.021 4.797-.436.898-.436-.898h-.366l.637 1.198v.698h.331v-.698l.635-1.198h-.365zm.548 1.895.154-.441h.734l.155.441h.344l-.717-1.896h-.296l-.716 1.896h.342zm.521-1.493.275.786h-.549l.275-.786zm1.737.741a.429.429 0 0 0-.072.241c0 .16.056.29.168.389s.263.148.451.148.349-.051.484-.152l.107.126h.367l-.279-.329a.95.95 0 0 0 .164-.574h-.275a.758.758 0 0 1-.079.348l-.366-.432.129-.094c.091-.066.157-.132.197-.198s.06-.14.06-.219c0-.12-.044-.22-.133-.301s-.201-.122-.339-.122c-.153 0-.274.043-.365.13s-.135.203-.135.352c0 .061.014.124.043.189s.081.144.155.237a1.12 1.12 0 0 0-.283.262zm.855.419a.485.485 0 0 1-.299.107c-.095 0-.17-.027-.227-.082s-.085-.126-.085-.214c0-.102.052-.192.156-.271l.04-.029.414.488zm-.34-.84c-.089-.11-.134-.202-.134-.275 0-.063.018-.116.055-.158s.085-.063.147-.063c.057 0 .105.018.142.053s.056.077.056.126a.235.235 0 0 1-.081.184l-.04.033-.145.099zm3.086 1.03a.689.689 0 0 0 .224-.474h-.328c-.017.135-.059.232-.124.29s-.162.087-.292.087c-.142 0-.249-.054-.323-.161s-.109-.264-.109-.469v-.168c.002-.202.041-.355.117-.46s.188-.158.331-.158c.123 0 .217.03.28.091s.104.158.12.294h.328c-.021-.207-.095-.368-.223-.482s-.296-.171-.505-.171a.718.718 0 0 0-.683.426 1.116 1.116 0 0 0-.095.473v.177c.003.174.035.328.098.46s.151.234.266.306a.748.748 0 0 0 .4.107c.216 0 .389-.056.52-.169zm1.936-.266c.064-.141.096-.304.096-.49v-.105c-.001-.185-.034-.347-.099-.486a.726.726 0 0 0-.687-.432.757.757 0 0 0-.411.113c-.119.075-.211.183-.277.324s-.098.305-.098.49v.107c.001.181.034.342.099.48s.159.246.279.322a.764.764 0 0 0 .411.112c.155 0 .293-.037.411-.112s.212-.183.276-.323zm-.352-1.071c.08.112.12.273.12.483v.099c0 .214-.04.376-.119.487s-.19.167-.336.167c-.144 0-.257-.057-.339-.171s-.121-.275-.121-.483v-.109c.002-.204.043-.362.122-.473s.192-.168.335-.168c.146 0 .258.056.337.168z"
      />
    </symbol>
    <symbol
      id="cross"
      viewBox="0 0 32 32"
    >
      <path
        d="M31.708 25.708 22 16l9.708-9.708a1 1 0 0 0 0-1.414L27.122.292a1 1 0 0 0-1.414-.001L16 9.999 6.292.291a.998.998 0 0 0-1.414.001L.292 4.878a1 1 0 0 0 0 1.414L10 16 .292 25.708a.999.999 0 0 0 0 1.414l4.586 4.586a1 1 0 0 0 1.414 0L16 22l9.708 9.708a1 1 0 0 0 1.414 0l4.586-4.586a.999.999 0 0 0 0-1.414z"
      />
    </symbol>
  </defs>
</svg>
